<svg width="1920" height="1080" viewBox="0 0 1920 1080" fill="none" xmlns="http://www.w3.org/2000/svg">
<rect width="1920" height="1080" fill="black"/>
<path d="M854.824 578C846.632 578 840.659 576.293 836.904 572.88C833.235 569.381 831.4 563.877 831.4 556.368V554.96C831.4 550.949 832.168 547.365 833.704 544.208C835.325 541.051 838.184 538.704 842.28 537.168C839.891 535.973 838.099 534.139 836.904 531.664C835.795 529.189 835.24 526.331 835.24 523.088V521.68C835.24 518.352 835.923 515.237 837.288 512.336C838.653 509.435 841.043 507.131 844.456 505.424C847.869 503.632 852.605 502.736 858.664 502.736H880.552C886.525 502.736 891.176 503.632 894.504 505.424C897.917 507.131 900.307 509.435 901.672 512.336C903.123 515.237 903.848 518.352 903.848 521.68V523.088C903.848 526.245 903.293 529.061 902.184 531.536C901.075 533.925 899.24 535.803 896.68 537.168C900.776 538.704 903.635 541.051 905.256 544.208C906.877 547.365 907.688 550.949 907.688 554.96V556.368C907.688 563.877 905.811 569.381 902.056 572.88C898.387 576.293 892.499 578 884.392 578H854.824ZM862.376 533.456H876.968C880.296 533.456 882.771 532.773 884.392 531.408C886.099 530.043 886.952 527.781 886.952 524.624V523.984C886.952 520.827 886.312 518.565 885.032 517.2C883.752 515.749 881.064 515.024 876.968 515.024H862.376C858.451 515.024 855.763 515.664 854.312 516.944C852.861 518.224 852.136 520.571 852.136 523.984V524.624C852.136 527.781 852.904 530.043 854.44 531.408C856.061 532.773 858.707 533.456 862.376 533.456ZM858.536 565.712H880.808C883.965 565.712 886.397 564.987 888.104 563.536C889.896 562.085 890.792 559.781 890.792 556.624V553.68C890.792 550.949 889.896 548.773 888.104 547.152C886.312 545.531 883.88 544.72 880.808 544.72H858.536C855.464 544.72 852.989 545.488 851.112 547.024C849.235 548.475 848.296 550.693 848.296 553.68V556.624C848.296 559.781 849.192 562.085 850.984 563.536C852.861 564.987 855.379 565.712 858.536 565.712ZM1018.19 578C1012.22 578 1007.52 577.147 1004.11 575.44C1000.7 573.733 998.264 571.173 996.813 567.76C995.448 564.347 994.765 560.123 994.765 555.088V525.52C994.765 520.571 995.448 516.432 996.813 513.104C998.178 509.691 1000.57 507.131 1003.98 505.424C1007.39 503.632 1012.13 502.736 1018.19 502.736H1047.76C1053.73 502.736 1058.38 503.632 1061.71 505.424C1065.12 507.131 1067.51 509.691 1068.88 513.104C1070.33 516.432 1071.05 520.571 1071.05 525.52V555.088C1071.05 562.597 1069.39 568.315 1066.06 572.24C1062.73 576.08 1056.63 578 1047.76 578H1018.19ZM1021.9 565.712H1044.17C1047.33 565.712 1049.76 564.901 1051.47 563.28C1053.26 561.659 1054.16 559.44 1054.16 556.624V523.984C1054.16 521.509 1053.26 519.419 1051.47 517.712C1049.68 515.92 1047.24 515.024 1044.17 515.024H1021.9C1018.83 515.024 1016.35 515.835 1014.48 517.456C1012.6 519.077 1011.66 521.253 1011.66 523.984V556.624C1011.66 559.525 1012.56 561.787 1014.35 563.408C1016.23 564.944 1018.74 565.712 1021.9 565.712ZM1185.34 578C1179.37 578 1174.67 577.147 1171.26 575.44C1167.85 573.733 1165.41 571.173 1163.96 567.76C1162.6 564.347 1161.91 560.123 1161.91 555.088V525.52C1161.91 520.571 1162.6 516.432 1163.96 513.104C1165.33 509.691 1167.72 507.131 1171.13 505.424C1174.54 503.632 1179.28 502.736 1185.34 502.736H1214.91C1220.88 502.736 1225.53 503.632 1228.86 505.424C1232.27 507.131 1234.66 509.691 1236.03 513.104C1237.48 516.432 1238.2 520.571 1238.2 525.52V555.088C1238.2 562.597 1236.54 568.315 1233.21 572.24C1229.88 576.08 1223.78 578 1214.91 578H1185.34ZM1189.05 565.712H1211.32C1214.48 565.712 1216.91 564.901 1218.62 563.28C1220.41 561.659 1221.31 559.44 1221.31 556.624V523.984C1221.31 521.509 1220.41 519.419 1218.62 517.712C1216.83 515.92 1214.39 515.024 1211.32 515.024H1189.05C1185.98 515.024 1183.5 515.835 1181.63 517.456C1179.75 519.077 1178.81 521.253 1178.81 523.984V556.624C1178.81 559.525 1179.71 561.787 1181.5 563.408C1183.38 564.944 1185.89 565.712 1189.05 565.712ZM1348.65 578C1340.46 578 1334.48 576.293 1330.73 572.88C1327.06 569.381 1325.23 563.877 1325.23 556.368V554.96C1325.23 550.949 1325.99 547.365 1327.53 544.208C1329.15 541.051 1332.01 538.704 1336.11 537.168C1333.72 535.973 1331.92 534.139 1330.73 531.664C1329.62 529.189 1329.07 526.331 1329.07 523.088V521.68C1329.07 518.352 1329.75 515.237 1331.11 512.336C1332.48 509.435 1334.87 507.131 1338.28 505.424C1341.69 503.632 1346.43 502.736 1352.49 502.736H1374.38C1380.35 502.736 1385 503.632 1388.33 505.424C1391.74 507.131 1394.13 509.435 1395.5 512.336C1396.95 515.237 1397.67 518.352 1397.67 521.68V523.088C1397.67 526.245 1397.12 529.061 1396.01 531.536C1394.9 533.925 1393.07 535.803 1390.51 537.168C1394.6 538.704 1397.46 541.051 1399.08 544.208C1400.7 547.365 1401.51 550.949 1401.51 554.96V556.368C1401.51 563.877 1399.64 569.381 1395.88 572.88C1392.21 576.293 1386.32 578 1378.22 578H1348.65ZM1356.2 533.456H1370.79C1374.12 533.456 1376.6 532.773 1378.22 531.408C1379.92 530.043 1380.78 527.781 1380.78 524.624V523.984C1380.78 520.827 1380.14 518.565 1378.86 517.2C1377.58 515.749 1374.89 515.024 1370.79 515.024H1356.2C1352.28 515.024 1349.59 515.664 1348.14 516.944C1346.69 518.224 1345.96 520.571 1345.96 523.984V524.624C1345.96 527.781 1346.73 530.043 1348.27 531.408C1349.89 532.773 1352.53 533.456 1356.2 533.456ZM1352.36 565.712H1374.63C1377.79 565.712 1380.22 564.987 1381.93 563.536C1383.72 562.085 1384.62 559.781 1384.62 556.624V553.68C1384.62 550.949 1383.72 548.773 1381.93 547.152C1380.14 545.531 1377.71 544.72 1374.63 544.72H1352.36C1349.29 544.72 1346.81 545.488 1344.94 547.024C1343.06 548.475 1342.12 550.693 1342.12 553.68V556.624C1342.12 559.781 1343.02 562.085 1344.81 563.536C1346.69 564.987 1349.2 565.712 1352.36 565.712ZM1508.3 578C1502.58 578 1498.02 577.744 1494.61 577.232C1491.19 576.72 1488.63 576.165 1486.93 575.568C1485.3 574.885 1484.15 574.416 1483.47 574.16L1488.46 564.304C1490.34 564.475 1494.82 564.773 1501.9 565.2C1508.98 565.541 1519.61 565.712 1533.77 565.712C1537.53 565.712 1540.13 564.901 1541.58 563.28C1543.03 561.573 1543.76 559.355 1543.76 556.624V551.76C1543.76 549.285 1543.03 547.152 1541.58 545.36C1540.22 543.568 1537.57 542.672 1533.65 542.672H1497.55L1487.31 543.952V502.736H1545.17C1549.43 502.736 1552.46 502.907 1554.25 503.248C1556.05 503.589 1556.94 503.931 1556.94 504.272L1554.38 515.024H1504.21V532.56C1505.32 532.389 1507.53 532.176 1510.86 531.92C1514.28 531.664 1518.88 531.536 1524.69 531.536H1534.8C1544.36 531.536 1551.05 533.285 1554.89 536.784C1558.73 540.197 1560.65 545.317 1560.65 552.144V555.088C1560.65 557.733 1560.44 560.421 1560.01 563.152C1559.59 565.797 1558.65 568.272 1557.2 570.576C1555.75 572.795 1553.44 574.587 1550.29 575.952C1547.13 577.317 1542.82 578 1537.36 578H1508.3Z" fill="white"/>
<path d="M710.547 1017.84H709.469C709.375 1017.47 709.203 1017.03 708.953 1016.52C708.714 1015.99 708.443 1015.51 708.141 1015.05C707.828 1014.57 707.484 1014.15 707.109 1013.8C706.745 1013.43 706.391 1013.22 706.047 1013.17C705.724 1013.13 705.318 1013.1 704.828 1013.08C704.339 1013.06 703.885 1013.05 703.469 1013.05H702.562V1030.78C702.562 1031.12 702.635 1031.44 702.781 1031.73C702.927 1032.02 703.182 1032.23 703.547 1032.39C703.734 1032.46 704.125 1032.56 704.719 1032.69C705.323 1032.81 705.792 1032.88 706.125 1032.89V1034H695.656V1032.89C695.948 1032.87 696.391 1032.83 696.984 1032.77C697.589 1032.7 698.005 1032.62 698.234 1032.53C698.578 1032.4 698.828 1032.2 698.984 1031.95C699.151 1031.69 699.234 1031.35 699.234 1030.92V1013.05H698.328C698.005 1013.05 697.604 1013.06 697.125 1013.08C696.646 1013.09 696.188 1013.12 695.75 1013.17C695.406 1013.21 695.047 1013.42 694.672 1013.8C694.307 1014.16 693.969 1014.58 693.656 1015.05C693.344 1015.52 693.068 1016.02 692.828 1016.55C692.589 1017.07 692.422 1017.5 692.328 1017.84H691.234V1011.83H710.547V1017.84ZM731.072 1034H723.509V1032.97C723.749 1032.95 724.015 1032.93 724.306 1032.91C724.598 1032.89 724.837 1032.84 725.025 1032.78C725.317 1032.69 725.53 1032.53 725.666 1032.3C725.811 1032.06 725.884 1031.75 725.884 1031.38V1023.45C725.884 1022.36 725.624 1021.52 725.103 1020.92C724.593 1020.33 723.968 1020.03 723.228 1020.03C722.686 1020.03 722.181 1020.12 721.712 1020.3C721.254 1020.46 720.843 1020.67 720.478 1020.92C720.124 1021.18 719.853 1021.44 719.666 1021.7C719.478 1021.96 719.332 1022.18 719.228 1022.36V1031.22C719.228 1031.57 719.296 1031.86 719.431 1032.09C719.577 1032.32 719.796 1032.5 720.087 1032.62C720.317 1032.73 720.551 1032.81 720.791 1032.86C721.041 1032.91 721.311 1032.95 721.603 1032.97V1034H714.041V1032.97C714.28 1032.95 714.53 1032.93 714.791 1032.91C715.051 1032.88 715.27 1032.83 715.447 1032.78C715.739 1032.69 715.957 1032.53 716.103 1032.3C716.249 1032.06 716.322 1031.75 716.322 1031.38V1013.44C716.322 1013.08 716.239 1012.73 716.072 1012.38C715.916 1012.02 715.707 1011.76 715.447 1011.58C715.259 1011.44 714.926 1011.35 714.447 1011.3C713.978 1011.23 713.598 1011.19 713.306 1011.17V1010.17L719.009 1009.81L719.228 1010.05V1020.8H719.291C719.634 1020.45 719.947 1020.15 720.228 1019.89C720.509 1019.62 720.879 1019.34 721.337 1019.05C721.733 1018.8 722.197 1018.59 722.728 1018.42C723.27 1018.26 723.874 1018.17 724.541 1018.17C725.916 1018.17 726.973 1018.61 727.712 1019.48C728.452 1020.35 728.822 1021.6 728.822 1023.23V1031.25C728.822 1031.61 728.884 1031.91 729.009 1032.14C729.145 1032.36 729.364 1032.53 729.666 1032.66C729.905 1032.75 730.119 1032.82 730.306 1032.88C730.504 1032.92 730.759 1032.95 731.072 1032.97V1034ZM749.05 1030.38C748.404 1031.6 747.54 1032.58 746.456 1033.31C745.373 1034.04 744.128 1034.41 742.722 1034.41C741.482 1034.41 740.394 1034.19 739.456 1033.75C738.529 1033.31 737.764 1032.72 737.159 1031.97C736.555 1031.22 736.102 1030.34 735.8 1029.34C735.508 1028.34 735.362 1027.29 735.362 1026.17C735.362 1025.17 735.519 1024.19 735.831 1023.23C736.154 1022.27 736.623 1021.4 737.237 1020.62C737.831 1019.89 738.566 1019.29 739.441 1018.84C740.326 1018.39 741.316 1018.16 742.409 1018.16C743.534 1018.16 744.498 1018.33 745.3 1018.69C746.102 1019.04 746.753 1019.53 747.253 1020.14C747.732 1020.72 748.086 1021.41 748.316 1022.2C748.555 1022.99 748.675 1023.85 748.675 1024.78V1025.81H738.472C738.472 1026.82 738.566 1027.74 738.753 1028.56C738.951 1029.39 739.258 1030.11 739.675 1030.73C740.081 1031.34 740.612 1031.82 741.269 1032.17C741.925 1032.52 742.706 1032.69 743.612 1032.69C744.54 1032.69 745.336 1032.47 746.003 1032.05C746.68 1031.61 747.331 1030.83 747.956 1029.7L749.05 1030.38ZM745.597 1024.5C745.597 1023.92 745.545 1023.29 745.441 1022.62C745.347 1021.96 745.191 1021.4 744.972 1020.95C744.732 1020.47 744.404 1020.08 743.987 1019.78C743.571 1019.48 743.034 1019.33 742.378 1019.33C741.284 1019.33 740.373 1019.79 739.644 1020.7C738.925 1021.61 738.534 1022.88 738.472 1024.5H745.597ZM777.553 1023.83C778.022 1024.35 778.366 1024.92 778.584 1025.55C778.814 1026.16 778.928 1026.88 778.928 1027.7C778.928 1029.66 778.204 1031.28 776.756 1032.55C775.308 1033.82 773.511 1034.45 771.366 1034.45C770.376 1034.45 769.386 1034.3 768.397 1034C767.407 1033.69 766.553 1033.31 765.834 1032.88L765.162 1034.02H763.912L763.694 1026.42H764.959C765.22 1027.36 765.522 1028.21 765.866 1028.97C766.22 1029.72 766.683 1030.42 767.256 1031.08C767.798 1031.69 768.428 1032.18 769.147 1032.55C769.876 1032.91 770.72 1033.09 771.678 1033.09C772.397 1033.09 773.022 1033 773.553 1032.81C774.095 1032.62 774.532 1032.36 774.866 1032.02C775.199 1031.67 775.444 1031.27 775.6 1030.81C775.767 1030.34 775.85 1029.81 775.85 1029.2C775.85 1028.32 775.6 1027.49 775.1 1026.73C774.6 1025.96 773.855 1025.38 772.866 1024.98C772.189 1024.71 771.412 1024.42 770.537 1024.09C769.662 1023.76 768.907 1023.45 768.272 1023.16C767.022 1022.59 766.048 1021.86 765.35 1020.95C764.662 1020.04 764.319 1018.84 764.319 1017.38C764.319 1016.53 764.491 1015.74 764.834 1015.02C765.178 1014.29 765.668 1013.64 766.303 1013.06C766.907 1012.52 767.621 1012.1 768.444 1011.8C769.267 1011.48 770.126 1011.33 771.022 1011.33C772.043 1011.33 772.954 1011.48 773.756 1011.8C774.569 1012.11 775.308 1012.47 775.975 1012.89L776.616 1011.83H777.866L777.991 1019.19H776.725C776.496 1018.34 776.235 1017.54 775.944 1016.77C775.662 1015.99 775.293 1015.3 774.834 1014.67C774.386 1014.07 773.84 1013.59 773.194 1013.23C772.548 1012.87 771.756 1012.69 770.819 1012.69C769.829 1012.69 768.985 1013.01 768.287 1013.64C767.59 1014.28 767.241 1015.05 767.241 1015.97C767.241 1016.93 767.465 1017.72 767.912 1018.36C768.36 1018.98 769.011 1019.5 769.866 1019.91C770.626 1020.27 771.371 1020.59 772.1 1020.86C772.84 1021.12 773.553 1021.4 774.241 1021.7C774.866 1021.97 775.465 1022.28 776.037 1022.62C776.621 1022.97 777.126 1023.37 777.553 1023.83ZM797.406 1030.38C796.76 1031.6 795.896 1032.58 794.812 1033.31C793.729 1034.04 792.484 1034.41 791.078 1034.41C789.839 1034.41 788.75 1034.19 787.812 1033.75C786.885 1033.31 786.12 1032.72 785.516 1031.97C784.911 1031.22 784.458 1030.34 784.156 1029.34C783.865 1028.34 783.719 1027.29 783.719 1026.17C783.719 1025.17 783.875 1024.19 784.188 1023.23C784.51 1022.27 784.979 1021.4 785.594 1020.62C786.188 1019.89 786.922 1019.29 787.797 1018.84C788.682 1018.39 789.672 1018.16 790.766 1018.16C791.891 1018.16 792.854 1018.33 793.656 1018.69C794.458 1019.04 795.109 1019.53 795.609 1020.14C796.089 1020.72 796.443 1021.41 796.672 1022.2C796.911 1022.99 797.031 1023.85 797.031 1024.78V1025.81H786.828C786.828 1026.82 786.922 1027.74 787.109 1028.56C787.307 1029.39 787.615 1030.11 788.031 1030.73C788.438 1031.34 788.969 1031.82 789.625 1032.17C790.281 1032.52 791.062 1032.69 791.969 1032.69C792.896 1032.69 793.693 1032.47 794.359 1032.05C795.036 1031.61 795.688 1030.83 796.312 1029.7L797.406 1030.38ZM793.953 1024.5C793.953 1023.92 793.901 1023.29 793.797 1022.62C793.703 1021.96 793.547 1021.4 793.328 1020.95C793.089 1020.47 792.76 1020.08 792.344 1019.78C791.927 1019.48 791.391 1019.33 790.734 1019.33C789.641 1019.33 788.729 1019.79 788 1020.7C787.281 1021.61 786.891 1022.88 786.828 1024.5H793.953ZM813.384 1020.58C813.384 1021.11 813.254 1021.58 812.994 1022C812.733 1022.41 812.332 1022.61 811.791 1022.61C811.207 1022.61 810.759 1022.46 810.447 1022.16C810.145 1021.85 809.994 1021.52 809.994 1021.16C809.994 1020.93 810.009 1020.72 810.041 1020.53C810.082 1020.34 810.119 1020.16 810.15 1019.97C809.66 1019.97 809.088 1020.17 808.431 1020.56C807.775 1020.96 807.218 1021.52 806.759 1022.25V1031.22C806.759 1031.58 806.827 1031.88 806.963 1032.11C807.108 1032.34 807.332 1032.51 807.634 1032.62C807.895 1032.73 808.228 1032.81 808.634 1032.86C809.051 1032.91 809.41 1032.95 809.713 1032.97V1034H801.588V1032.97C801.827 1032.95 802.072 1032.93 802.322 1032.91C802.582 1032.89 802.806 1032.84 802.994 1032.78C803.285 1032.69 803.499 1032.53 803.634 1032.3C803.78 1032.06 803.853 1031.75 803.853 1031.38V1021.86C803.853 1021.54 803.775 1021.22 803.619 1020.91C803.473 1020.59 803.265 1020.34 802.994 1020.16C802.796 1020.03 802.561 1019.94 802.291 1019.89C802.02 1019.83 801.728 1019.79 801.416 1019.77V1018.75L806.541 1018.41L806.759 1018.62V1020.8H806.838C807.483 1019.95 808.202 1019.31 808.994 1018.88C809.785 1018.44 810.509 1018.22 811.166 1018.22C811.822 1018.22 812.353 1018.43 812.759 1018.86C813.176 1019.29 813.384 1019.86 813.384 1020.58ZM832.331 1019.55C831.863 1019.63 831.415 1019.8 830.988 1020.06C830.571 1020.31 830.211 1020.76 829.909 1021.41C829.295 1022.8 828.659 1024.26 828.003 1025.78C827.347 1027.29 826.665 1028.88 825.956 1030.55C825.748 1031.03 825.524 1031.59 825.284 1032.25C825.055 1032.91 824.842 1033.54 824.644 1034.14H823.425C822.435 1031.69 821.524 1029.46 820.691 1027.45C819.857 1025.43 818.993 1023.36 818.097 1021.25C817.889 1020.77 817.55 1020.4 817.081 1020.14C816.623 1019.87 816.159 1019.7 815.691 1019.62V1018.59H822.816V1019.69C822.503 1019.7 822.113 1019.77 821.644 1019.89C821.175 1020.01 820.941 1020.17 820.941 1020.38C820.941 1020.41 820.967 1020.49 821.019 1020.62C821.071 1020.75 821.123 1020.9 821.175 1021.06C821.602 1022.12 822.206 1023.61 822.988 1025.52C823.769 1027.42 824.404 1028.96 824.894 1030.12C825.269 1029.23 825.738 1028.11 826.3 1026.78C826.873 1025.45 827.488 1023.96 828.144 1022.31C828.248 1022.03 828.347 1021.77 828.441 1021.53C828.534 1021.28 828.581 1021.03 828.581 1020.78C828.581 1020.6 828.493 1020.45 828.316 1020.31C828.149 1020.17 827.946 1020.04 827.706 1019.94C827.467 1019.83 827.232 1019.76 827.003 1019.7C826.774 1019.65 826.586 1019.61 826.441 1019.59V1018.59H832.331V1019.55ZM849.106 1030.38C848.46 1031.6 847.596 1032.58 846.512 1033.31C845.429 1034.04 844.184 1034.41 842.778 1034.41C841.539 1034.41 840.45 1034.19 839.512 1033.75C838.585 1033.31 837.82 1032.72 837.216 1031.97C836.611 1031.22 836.158 1030.34 835.856 1029.34C835.565 1028.34 835.419 1027.29 835.419 1026.17C835.419 1025.17 835.575 1024.19 835.887 1023.23C836.21 1022.27 836.679 1021.4 837.294 1020.62C837.887 1019.89 838.622 1019.29 839.497 1018.84C840.382 1018.39 841.372 1018.16 842.466 1018.16C843.591 1018.16 844.554 1018.33 845.356 1018.69C846.158 1019.04 846.809 1019.53 847.309 1020.14C847.789 1020.72 848.143 1021.41 848.372 1022.2C848.611 1022.99 848.731 1023.85 848.731 1024.78V1025.81H838.528C838.528 1026.82 838.622 1027.74 838.809 1028.56C839.007 1029.39 839.315 1030.11 839.731 1030.73C840.137 1031.34 840.669 1031.82 841.325 1032.17C841.981 1032.52 842.762 1032.69 843.669 1032.69C844.596 1032.69 845.393 1032.47 846.059 1032.05C846.736 1031.61 847.387 1030.83 848.012 1029.7L849.106 1030.38ZM845.653 1024.5C845.653 1023.92 845.601 1023.29 845.497 1022.62C845.403 1021.96 845.247 1021.4 845.028 1020.95C844.789 1020.47 844.46 1020.08 844.044 1019.78C843.627 1019.48 843.091 1019.33 842.434 1019.33C841.341 1019.33 840.429 1019.79 839.7 1020.7C838.981 1021.61 838.591 1022.88 838.528 1024.5H845.653ZM865.084 1020.58C865.084 1021.11 864.954 1021.58 864.694 1022C864.433 1022.41 864.032 1022.61 863.491 1022.61C862.907 1022.61 862.459 1022.46 862.147 1022.16C861.845 1021.85 861.694 1021.52 861.694 1021.16C861.694 1020.93 861.709 1020.72 861.741 1020.53C861.782 1020.34 861.819 1020.16 861.85 1019.97C861.36 1019.97 860.788 1020.17 860.131 1020.56C859.475 1020.96 858.918 1021.52 858.459 1022.25V1031.22C858.459 1031.58 858.527 1031.88 858.663 1032.11C858.808 1032.34 859.032 1032.51 859.334 1032.62C859.595 1032.73 859.928 1032.81 860.334 1032.86C860.751 1032.91 861.11 1032.95 861.413 1032.97V1034H853.288V1032.97C853.527 1032.95 853.772 1032.93 854.022 1032.91C854.282 1032.89 854.506 1032.84 854.694 1032.78C854.985 1032.69 855.199 1032.53 855.334 1032.3C855.48 1032.06 855.553 1031.75 855.553 1031.38V1021.86C855.553 1021.54 855.475 1021.22 855.319 1020.91C855.173 1020.59 854.965 1020.34 854.694 1020.16C854.496 1020.03 854.261 1019.94 853.991 1019.89C853.72 1019.83 853.428 1019.79 853.116 1019.77V1018.75L858.241 1018.41L858.459 1018.62V1020.8H858.538C859.183 1019.95 859.902 1019.31 860.694 1018.88C861.485 1018.44 862.209 1018.22 862.866 1018.22C863.522 1018.22 864.053 1018.43 864.459 1018.86C864.876 1019.29 865.084 1019.86 865.084 1020.58ZM886.416 1034H878.962V1032.97C879.202 1032.95 879.447 1032.93 879.697 1032.91C879.957 1032.89 880.181 1032.84 880.369 1032.78C880.66 1032.69 880.874 1032.53 881.009 1032.3C881.155 1032.06 881.228 1031.75 881.228 1031.38V1021.86C881.228 1021.53 881.15 1021.22 880.994 1020.95C880.848 1020.67 880.64 1020.44 880.369 1020.25C880.171 1020.12 879.884 1020.02 879.509 1019.94C879.134 1019.84 878.791 1019.79 878.478 1019.77V1018.75L883.916 1018.41L884.134 1018.62V1031.19C884.134 1031.55 884.202 1031.85 884.337 1032.09C884.483 1032.33 884.707 1032.51 885.009 1032.62C885.239 1032.72 885.462 1032.8 885.681 1032.86C885.9 1032.91 886.145 1032.95 886.416 1032.97V1034ZM884.447 1012.33C884.447 1012.92 884.249 1013.44 883.853 1013.89C883.468 1014.33 882.989 1014.55 882.416 1014.55C881.884 1014.55 881.421 1014.34 881.025 1013.92C880.64 1013.49 880.447 1013.01 880.447 1012.47C880.447 1011.9 880.64 1011.4 881.025 1010.97C881.421 1010.54 881.884 1010.33 882.416 1010.33C883.009 1010.33 883.494 1010.53 883.869 1010.94C884.254 1011.33 884.447 1011.8 884.447 1012.33ZM900.878 1026.45C901.305 1026.83 901.633 1027.26 901.863 1027.75C902.092 1028.24 902.206 1028.84 902.206 1029.55C902.206 1030.97 901.67 1032.14 900.597 1033.05C899.534 1033.95 898.154 1034.41 896.456 1034.41C895.56 1034.41 894.732 1034.24 893.972 1033.92C893.222 1033.6 892.685 1033.3 892.363 1033.03L892.05 1034.05H890.878L890.722 1028.69H891.8C891.883 1029.09 892.06 1029.57 892.331 1030.11C892.602 1030.65 892.93 1031.14 893.316 1031.58C893.722 1032.04 894.206 1032.42 894.769 1032.73C895.342 1033.05 895.982 1033.2 896.691 1033.2C897.691 1033.2 898.461 1032.98 899.003 1032.53C899.545 1032.07 899.816 1031.42 899.816 1030.58C899.816 1030.14 899.727 1029.77 899.55 1029.45C899.383 1029.13 899.133 1028.85 898.8 1028.61C898.456 1028.37 898.034 1028.16 897.534 1027.97C897.034 1027.77 896.477 1027.58 895.863 1027.39C895.373 1027.24 894.826 1027.05 894.222 1026.8C893.628 1026.54 893.118 1026.23 892.691 1025.89C892.232 1025.53 891.857 1025.08 891.566 1024.55C891.274 1024.02 891.128 1023.39 891.128 1022.67C891.128 1021.41 891.597 1020.34 892.534 1019.47C893.472 1018.59 894.727 1018.16 896.3 1018.16C896.904 1018.16 897.519 1018.23 898.144 1018.39C898.779 1018.55 899.295 1018.73 899.691 1018.95L900.05 1018.14H901.175L901.409 1023.09H900.331C900.113 1021.99 899.639 1021.09 898.909 1020.41C898.191 1019.71 897.31 1019.36 896.269 1019.36C895.415 1019.36 894.743 1019.57 894.253 1020C893.764 1020.43 893.519 1020.94 893.519 1021.55C893.519 1022.02 893.597 1022.41 893.753 1022.72C893.92 1023.03 894.165 1023.3 894.488 1023.52C894.8 1023.72 895.191 1023.92 895.659 1024.11C896.139 1024.29 896.727 1024.49 897.425 1024.72C898.113 1024.94 898.758 1025.19 899.363 1025.48C899.977 1025.78 900.482 1026.1 900.878 1026.45ZM933.803 1034H926.241V1032.97C926.48 1032.95 926.746 1032.93 927.038 1032.91C927.329 1032.89 927.569 1032.84 927.756 1032.78C928.048 1032.69 928.261 1032.53 928.397 1032.3C928.543 1032.06 928.616 1031.75 928.616 1031.38V1023.45C928.616 1022.36 928.355 1021.52 927.834 1020.92C927.324 1020.33 926.699 1020.03 925.959 1020.03C925.418 1020.03 924.913 1020.12 924.444 1020.3C923.985 1020.46 923.574 1020.67 923.209 1020.92C922.855 1021.18 922.584 1021.44 922.397 1021.7C922.209 1021.96 922.064 1022.18 921.959 1022.36V1031.22C921.959 1031.57 922.027 1031.86 922.163 1032.09C922.308 1032.32 922.527 1032.5 922.819 1032.62C923.048 1032.73 923.282 1032.81 923.522 1032.86C923.772 1032.91 924.043 1032.95 924.334 1032.97V1034H916.772V1032.97C917.011 1032.95 917.261 1032.93 917.522 1032.91C917.782 1032.88 918.001 1032.83 918.178 1032.78C918.47 1032.69 918.689 1032.53 918.834 1032.3C918.98 1032.06 919.053 1031.75 919.053 1031.38V1013.44C919.053 1013.08 918.97 1012.73 918.803 1012.38C918.647 1012.02 918.439 1011.76 918.178 1011.58C917.991 1011.44 917.657 1011.35 917.178 1011.3C916.709 1011.23 916.329 1011.19 916.038 1011.17V1010.17L921.741 1009.81L921.959 1010.05V1020.8H922.022C922.366 1020.45 922.678 1020.15 922.959 1019.89C923.241 1019.62 923.61 1019.34 924.069 1019.05C924.465 1018.8 924.928 1018.59 925.459 1018.42C926.001 1018.26 926.605 1018.17 927.272 1018.17C928.647 1018.17 929.704 1018.61 930.444 1019.48C931.183 1020.35 931.553 1021.6 931.553 1023.23V1031.25C931.553 1031.61 931.616 1031.91 931.741 1032.14C931.876 1032.36 932.095 1032.53 932.397 1032.66C932.636 1032.75 932.85 1032.82 933.038 1032.88C933.235 1032.92 933.491 1032.95 933.803 1032.97V1034ZM952.688 1033.72C952.198 1033.9 951.766 1034.04 951.391 1034.14C951.026 1034.26 950.609 1034.31 950.141 1034.31C949.328 1034.31 948.677 1034.12 948.188 1033.75C947.708 1033.36 947.401 1032.81 947.266 1032.08H947.172C946.495 1032.83 945.766 1033.4 944.984 1033.8C944.214 1034.19 943.281 1034.39 942.188 1034.39C941.031 1034.39 940.078 1034.04 939.328 1033.33C938.589 1032.62 938.219 1031.69 938.219 1030.55C938.219 1029.95 938.302 1029.42 938.469 1028.95C938.635 1028.48 938.885 1028.06 939.219 1027.69C939.479 1027.38 939.823 1027.1 940.25 1026.86C940.677 1026.61 941.078 1026.41 941.453 1026.27C941.922 1026.09 942.87 1025.76 944.297 1025.28C945.734 1024.8 946.703 1024.43 947.203 1024.16V1022.61C947.203 1022.47 947.172 1022.21 947.109 1021.83C947.057 1021.44 946.938 1021.08 946.75 1020.73C946.542 1020.35 946.245 1020.02 945.859 1019.73C945.484 1019.44 944.948 1019.3 944.25 1019.3C943.771 1019.3 943.323 1019.38 942.906 1019.55C942.5 1019.7 942.214 1019.87 942.047 1020.05C942.047 1020.26 942.094 1020.56 942.188 1020.97C942.292 1021.38 942.344 1021.75 942.344 1022.09C942.344 1022.46 942.177 1022.79 941.844 1023.09C941.521 1023.4 941.068 1023.55 940.484 1023.55C939.964 1023.55 939.578 1023.36 939.328 1023C939.089 1022.62 938.969 1022.21 938.969 1021.75C938.969 1021.27 939.135 1020.81 939.469 1020.38C939.812 1019.94 940.255 1019.55 940.797 1019.2C941.266 1018.91 941.833 1018.67 942.5 1018.47C943.167 1018.26 943.818 1018.16 944.453 1018.16C945.328 1018.16 946.089 1018.22 946.734 1018.34C947.391 1018.46 947.984 1018.71 948.516 1019.11C949.047 1019.49 949.448 1020.02 949.719 1020.69C950 1021.34 950.141 1022.19 950.141 1023.23C950.141 1024.72 950.125 1026.05 950.094 1027.2C950.062 1028.35 950.047 1029.6 950.047 1030.97C950.047 1031.38 950.115 1031.7 950.25 1031.94C950.396 1032.18 950.615 1032.38 950.906 1032.55C951.062 1032.64 951.307 1032.69 951.641 1032.7C951.984 1032.71 952.333 1032.72 952.688 1032.72V1033.72ZM947.234 1025.47C946.349 1025.73 945.573 1025.98 944.906 1026.23C944.24 1026.48 943.62 1026.8 943.047 1027.17C942.526 1027.53 942.115 1027.95 941.812 1028.44C941.51 1028.92 941.359 1029.49 941.359 1030.16C941.359 1031.02 941.583 1031.66 942.031 1032.06C942.49 1032.47 943.068 1032.67 943.766 1032.67C944.505 1032.67 945.156 1032.49 945.719 1032.14C946.281 1031.78 946.755 1031.35 947.141 1030.86L947.234 1025.47ZM971.837 1019.55C971.369 1019.63 970.921 1019.8 970.494 1020.06C970.077 1020.31 969.718 1020.76 969.416 1021.41C968.801 1022.8 968.166 1024.26 967.509 1025.78C966.853 1027.29 966.171 1028.88 965.462 1030.55C965.254 1031.03 965.03 1031.59 964.791 1032.25C964.561 1032.91 964.348 1033.54 964.15 1034.14H962.931C961.942 1031.69 961.03 1029.46 960.197 1027.45C959.364 1025.43 958.499 1023.36 957.603 1021.25C957.395 1020.77 957.056 1020.4 956.587 1020.14C956.129 1019.87 955.666 1019.7 955.197 1019.62V1018.59H962.322V1019.69C962.009 1019.7 961.619 1019.77 961.15 1019.89C960.681 1020.01 960.447 1020.17 960.447 1020.38C960.447 1020.41 960.473 1020.49 960.525 1020.62C960.577 1020.75 960.629 1020.9 960.681 1021.06C961.108 1022.12 961.712 1023.61 962.494 1025.52C963.275 1027.42 963.91 1028.96 964.4 1030.12C964.775 1029.23 965.244 1028.11 965.806 1026.78C966.379 1025.45 966.994 1023.96 967.65 1022.31C967.754 1022.03 967.853 1021.77 967.947 1021.53C968.041 1021.28 968.087 1021.03 968.087 1020.78C968.087 1020.6 967.999 1020.45 967.822 1020.31C967.655 1020.17 967.452 1020.04 967.212 1019.94C966.973 1019.83 966.739 1019.76 966.509 1019.7C966.28 1019.65 966.093 1019.61 965.947 1019.59V1018.59H971.837V1019.55ZM982.409 1034H974.956V1032.97C975.196 1032.95 975.441 1032.93 975.691 1032.91C975.951 1032.89 976.175 1032.84 976.362 1032.78C976.654 1032.69 976.868 1032.53 977.003 1032.3C977.149 1032.06 977.222 1031.75 977.222 1031.38V1021.86C977.222 1021.53 977.144 1021.22 976.987 1020.95C976.842 1020.67 976.633 1020.44 976.362 1020.25C976.165 1020.12 975.878 1020.02 975.503 1019.94C975.128 1019.84 974.784 1019.79 974.472 1019.77V1018.75L979.909 1018.41L980.128 1018.62V1031.19C980.128 1031.55 980.196 1031.85 980.331 1032.09C980.477 1032.33 980.701 1032.51 981.003 1032.62C981.232 1032.72 981.456 1032.8 981.675 1032.86C981.894 1032.91 982.139 1032.95 982.409 1032.97V1034ZM980.441 1012.33C980.441 1012.92 980.243 1013.44 979.847 1013.89C979.461 1014.33 978.982 1014.55 978.409 1014.55C977.878 1014.55 977.415 1014.34 977.019 1013.92C976.633 1013.49 976.441 1013.01 976.441 1012.47C976.441 1011.9 976.633 1011.4 977.019 1010.97C977.415 1010.54 977.878 1010.33 978.409 1010.33C979.003 1010.33 979.487 1010.53 979.862 1010.94C980.248 1011.33 980.441 1011.8 980.441 1012.33ZM1003.72 1034H996.169V1032.97C996.408 1032.95 996.669 1032.93 996.95 1032.91C997.242 1032.89 997.481 1032.84 997.669 1032.78C997.96 1032.69 998.174 1032.53 998.309 1032.3C998.455 1032.06 998.528 1031.75 998.528 1031.38V1023.45C998.528 1022.36 998.268 1021.52 997.747 1020.92C997.236 1020.33 996.611 1020.03 995.872 1020.03C995.32 1020.03 994.815 1020.12 994.356 1020.3C993.898 1020.46 993.492 1020.67 993.138 1020.92C992.794 1021.16 992.518 1021.42 992.309 1021.7C992.111 1021.97 991.966 1022.19 991.872 1022.36V1031.22C991.872 1031.57 991.945 1031.86 992.091 1032.09C992.236 1032.32 992.455 1032.5 992.747 1032.62C992.966 1032.73 993.2 1032.81 993.45 1032.86C993.71 1032.91 993.976 1032.95 994.247 1032.97V1034H986.7V1032.97C986.94 1032.95 987.184 1032.93 987.434 1032.91C987.695 1032.89 987.919 1032.84 988.106 1032.78C988.398 1032.69 988.611 1032.53 988.747 1032.3C988.893 1032.06 988.966 1031.75 988.966 1031.38V1021.86C988.966 1021.51 988.888 1021.18 988.731 1020.89C988.585 1020.59 988.377 1020.34 988.106 1020.16C987.908 1020.03 987.674 1019.94 987.403 1019.89C987.132 1019.83 986.841 1019.79 986.528 1019.77V1018.75L991.653 1018.41L991.872 1018.62V1020.8H991.95C992.2 1020.55 992.513 1020.25 992.888 1019.91C993.263 1019.55 993.617 1019.27 993.95 1019.05C994.335 1018.8 994.794 1018.59 995.325 1018.42C995.856 1018.26 996.455 1018.17 997.122 1018.17C998.601 1018.17 999.695 1018.64 1000.4 1019.56C1001.12 1020.48 1001.48 1021.7 1001.48 1023.23V1031.25C1001.48 1031.61 1001.54 1031.91 1001.67 1032.14C1001.79 1032.36 1002.01 1032.53 1002.31 1032.66C1002.56 1032.76 1002.77 1032.83 1002.95 1032.88C1003.14 1032.92 1003.39 1032.95 1003.72 1032.97V1034ZM1021.21 1032.41C1021.63 1032.8 1021.95 1033.25 1022.19 1033.75C1022.43 1034.25 1022.55 1034.87 1022.55 1035.61C1022.55 1036.35 1022.39 1037.04 1022.07 1037.69C1021.75 1038.34 1021.26 1038.91 1020.6 1039.39C1019.9 1039.88 1019.07 1040.26 1018.1 1040.53C1017.13 1040.8 1015.93 1040.94 1014.51 1040.94C1012.17 1040.94 1010.43 1040.59 1009.27 1039.91C1008.12 1039.23 1007.54 1038.23 1007.54 1036.92C1007.54 1035.86 1007.95 1035.02 1008.79 1034.41C1009.62 1033.79 1010.68 1033.46 1011.98 1033.41V1033.19C1011.66 1033.09 1011.34 1032.98 1011.01 1032.84C1010.67 1032.7 1010.39 1032.53 1010.15 1032.34C1009.88 1032.12 1009.66 1031.87 1009.49 1031.58C1009.32 1031.28 1009.24 1030.91 1009.24 1030.47C1009.24 1029.92 1009.43 1029.41 1009.82 1028.95C1010.21 1028.48 1010.81 1028.08 1011.6 1027.75V1027.52C1010.6 1027.05 1009.82 1026.45 1009.27 1025.72C1008.72 1024.98 1008.44 1024.12 1008.44 1023.16C1008.44 1021.7 1008.99 1020.5 1010.07 1019.56C1011.16 1018.62 1012.56 1018.16 1014.26 1018.16C1014.73 1018.16 1015.19 1018.2 1015.65 1018.3C1016.12 1018.39 1016.59 1018.51 1017.07 1018.66H1022.44V1020.16H1018.82V1020.25C1019.2 1020.7 1019.49 1021.19 1019.68 1021.73C1019.87 1022.28 1019.96 1022.81 1019.96 1023.33C1019.96 1024.68 1019.41 1025.83 1018.3 1026.77C1017.21 1027.7 1015.93 1028.17 1014.48 1028.17H1012.58C1012.34 1028.26 1012.09 1028.41 1011.83 1028.62C1011.57 1028.84 1011.44 1029.14 1011.44 1029.52C1011.44 1029.9 1011.55 1030.2 1011.77 1030.41C1011.99 1030.6 1012.26 1030.74 1012.57 1030.81C1012.87 1030.9 1013.22 1030.95 1013.62 1030.97C1014.02 1030.99 1014.44 1031.01 1014.87 1031.02C1015.32 1031.03 1015.95 1031.06 1016.74 1031.11C1017.54 1031.16 1018.11 1031.19 1018.44 1031.2C1018.92 1031.22 1019.4 1031.34 1019.88 1031.55C1020.37 1031.76 1020.81 1032.04 1021.21 1032.41ZM1016.99 1023.27C1016.99 1022.05 1016.74 1021.08 1016.24 1020.36C1015.75 1019.63 1015.06 1019.27 1014.16 1019.27C1013.67 1019.27 1013.25 1019.37 1012.9 1019.58C1012.55 1019.78 1012.27 1020.06 1012.05 1020.44C1011.84 1020.78 1011.69 1021.2 1011.6 1021.69C1011.52 1022.17 1011.48 1022.66 1011.48 1023.17C1011.48 1024.33 1011.73 1025.27 1012.23 1026C1012.74 1026.73 1013.39 1027.09 1014.19 1027.09C1015.09 1027.09 1015.78 1026.73 1016.26 1026.02C1016.75 1025.29 1016.99 1024.37 1016.99 1023.27ZM1019.99 1036.19C1019.99 1035.6 1019.86 1035.12 1019.58 1034.75C1019.31 1034.38 1018.9 1034.12 1018.35 1033.98C1018.06 1033.94 1017.46 1033.9 1016.55 1033.84C1015.65 1033.79 1014.59 1033.77 1013.4 1033.77C1012.27 1033.98 1011.47 1034.35 1010.99 1034.86C1010.52 1035.38 1010.29 1036.05 1010.29 1036.86C1010.29 1037.22 1010.37 1037.57 1010.52 1037.91C1010.68 1038.24 1010.95 1038.55 1011.33 1038.83C1011.7 1039.1 1012.19 1039.32 1012.8 1039.48C1013.42 1039.66 1014.17 1039.75 1015.05 1039.75C1016.58 1039.75 1017.79 1039.45 1018.66 1038.86C1019.55 1038.28 1019.99 1037.39 1019.99 1036.19ZM1044.32 1034H1036.87V1032.97C1037.11 1032.95 1037.35 1032.93 1037.6 1032.91C1037.86 1032.89 1038.09 1032.84 1038.27 1032.78C1038.57 1032.69 1038.78 1032.53 1038.92 1032.3C1039.06 1032.06 1039.13 1031.75 1039.13 1031.38V1021.86C1039.13 1021.53 1039.06 1021.22 1038.9 1020.95C1038.75 1020.67 1038.55 1020.44 1038.27 1020.25C1038.08 1020.12 1037.79 1020.02 1037.42 1019.94C1037.04 1019.84 1036.7 1019.79 1036.38 1019.77V1018.75L1041.82 1018.41L1042.04 1018.62V1031.19C1042.04 1031.55 1042.11 1031.85 1042.24 1032.09C1042.39 1032.33 1042.61 1032.51 1042.92 1032.62C1043.14 1032.72 1043.37 1032.8 1043.59 1032.86C1043.81 1032.91 1044.05 1032.95 1044.32 1032.97V1034ZM1042.35 1012.33C1042.35 1012.92 1042.16 1013.44 1041.76 1013.89C1041.37 1014.33 1040.89 1014.55 1040.32 1014.55C1039.79 1014.55 1039.33 1014.34 1038.93 1013.92C1038.55 1013.49 1038.35 1013.01 1038.35 1012.47C1038.35 1011.9 1038.55 1011.4 1038.93 1010.97C1039.33 1010.54 1039.79 1010.33 1040.32 1010.33C1040.92 1010.33 1041.4 1010.53 1041.77 1010.94C1042.16 1011.33 1042.35 1011.8 1042.35 1012.33ZM1058.13 1033.33C1057.45 1033.61 1056.81 1033.84 1056.21 1034.03C1055.6 1034.23 1054.86 1034.33 1053.99 1034.33C1052.7 1034.33 1051.78 1034.01 1051.25 1033.36C1050.73 1032.7 1050.47 1031.78 1050.47 1030.59V1020.16H1047.69V1018.66H1050.53V1013.86H1053.38V1018.66H1057.8V1020.16H1053.41V1028.77C1053.41 1029.41 1053.43 1029.95 1053.47 1030.39C1053.52 1030.82 1053.64 1031.19 1053.82 1031.52C1053.98 1031.82 1054.23 1032.05 1054.57 1032.2C1054.9 1032.36 1055.35 1032.44 1055.91 1032.44C1056.17 1032.44 1056.55 1032.42 1057.05 1032.38C1057.56 1032.32 1057.92 1032.26 1058.13 1032.19V1033.33ZM1072.25 1026.45C1072.67 1026.83 1073 1027.26 1073.23 1027.75C1073.46 1028.24 1073.58 1028.84 1073.58 1029.55C1073.58 1030.97 1073.04 1032.14 1071.97 1033.05C1070.9 1033.95 1069.52 1034.41 1067.83 1034.41C1066.93 1034.41 1066.1 1034.24 1065.34 1033.92C1064.59 1033.6 1064.05 1033.3 1063.73 1033.03L1063.42 1034.05H1062.25L1062.09 1028.69H1063.17C1063.25 1029.09 1063.43 1029.57 1063.7 1030.11C1063.97 1030.65 1064.3 1031.14 1064.68 1031.58C1065.09 1032.04 1065.58 1032.42 1066.14 1032.73C1066.71 1033.05 1067.35 1033.2 1068.06 1033.2C1069.06 1033.2 1069.83 1032.98 1070.37 1032.53C1070.91 1032.07 1071.18 1031.42 1071.18 1030.58C1071.18 1030.14 1071.1 1029.77 1070.92 1029.45C1070.75 1029.13 1070.5 1028.85 1070.17 1028.61C1069.83 1028.37 1069.4 1028.16 1068.9 1027.97C1068.4 1027.77 1067.85 1027.58 1067.23 1027.39C1066.74 1027.24 1066.19 1027.05 1065.59 1026.8C1065 1026.54 1064.49 1026.23 1064.06 1025.89C1063.6 1025.53 1063.23 1025.08 1062.93 1024.55C1062.64 1024.02 1062.5 1023.39 1062.5 1022.67C1062.5 1021.41 1062.97 1020.34 1063.9 1019.47C1064.84 1018.59 1066.1 1018.16 1067.67 1018.16C1068.27 1018.16 1068.89 1018.23 1069.51 1018.39C1070.15 1018.55 1070.66 1018.73 1071.06 1018.95L1071.42 1018.14H1072.54L1072.78 1023.09H1071.7C1071.48 1021.99 1071.01 1021.09 1070.28 1020.41C1069.56 1019.71 1068.68 1019.36 1067.64 1019.36C1066.78 1019.36 1066.11 1019.57 1065.62 1020C1065.13 1020.43 1064.89 1020.94 1064.89 1021.55C1064.89 1022.02 1064.97 1022.41 1065.12 1022.72C1065.29 1023.03 1065.53 1023.3 1065.86 1023.52C1066.17 1023.72 1066.56 1023.92 1067.03 1024.11C1067.51 1024.29 1068.1 1024.49 1068.79 1024.72C1069.48 1024.94 1070.13 1025.19 1070.73 1025.48C1071.35 1025.78 1071.85 1026.1 1072.25 1026.45ZM1103.45 1026.14C1103.45 1027.22 1103.28 1028.29 1102.94 1029.34C1102.59 1030.39 1102.1 1031.27 1101.47 1032C1100.75 1032.83 1099.92 1033.45 1098.97 1033.86C1098.02 1034.27 1096.96 1034.47 1095.78 1034.47C1094.8 1034.47 1093.87 1034.29 1092.98 1033.92C1092.1 1033.55 1091.31 1033.01 1090.62 1032.3C1089.95 1031.6 1089.41 1030.75 1089 1029.75C1088.6 1028.74 1088.41 1027.61 1088.41 1026.36C1088.41 1023.95 1089.1 1021.98 1090.5 1020.45C1091.91 1018.92 1093.74 1018.16 1096.02 1018.16C1098.17 1018.16 1099.95 1018.89 1101.34 1020.34C1102.75 1021.79 1103.45 1023.72 1103.45 1026.14ZM1100.22 1026.17C1100.22 1025.39 1100.14 1024.57 1099.98 1023.7C1099.83 1022.83 1099.59 1022.09 1099.28 1021.48C1098.95 1020.84 1098.51 1020.32 1097.97 1019.94C1097.43 1019.54 1096.77 1019.34 1095.98 1019.34C1095.18 1019.34 1094.49 1019.54 1093.92 1019.94C1093.36 1020.33 1092.9 1020.88 1092.55 1021.56C1092.21 1022.2 1091.98 1022.92 1091.84 1023.73C1091.71 1024.55 1091.64 1025.33 1091.64 1026.09C1091.64 1027.09 1091.72 1028.02 1091.88 1028.88C1092.04 1029.72 1092.3 1030.47 1092.66 1031.14C1093.01 1031.81 1093.45 1032.33 1093.98 1032.72C1094.53 1033.09 1095.19 1033.28 1095.98 1033.28C1097.29 1033.28 1098.32 1032.65 1099.08 1031.39C1099.84 1030.13 1100.22 1028.39 1100.22 1026.17ZM1131.04 1019.59C1130.6 1019.64 1130.13 1019.82 1129.62 1020.14C1129.12 1020.46 1128.75 1020.95 1128.52 1021.59C1128 1023.12 1127.51 1024.58 1127.04 1025.95C1126.58 1027.32 1126.07 1028.85 1125.49 1030.56C1125.31 1031.1 1125.11 1031.69 1124.92 1032.31C1124.73 1032.94 1124.56 1033.54 1124.4 1034.11H1123.06L1118.92 1022.77L1114.74 1034.11H1113.46C1112.68 1031.8 1111.92 1029.51 1111.17 1027.23C1110.43 1024.95 1109.77 1022.97 1109.2 1021.28C1109.03 1020.79 1108.71 1020.41 1108.24 1020.12C1107.77 1019.84 1107.32 1019.68 1106.88 1019.62V1018.59H1113.76V1019.69C1113.42 1019.7 1113.04 1019.76 1112.63 1019.86C1112.24 1019.96 1112.04 1020.14 1112.04 1020.38C1112.04 1020.42 1112.06 1020.51 1112.09 1020.64C1112.13 1020.78 1112.18 1020.92 1112.23 1021.08C1112.56 1022.17 1112.94 1023.4 1113.35 1024.75C1113.78 1026.09 1114.33 1027.84 1114.99 1030L1118.93 1018.91H1120.43L1124.45 1029.84C1124.89 1028.45 1125.34 1027.1 1125.77 1025.8C1126.22 1024.48 1126.61 1023.26 1126.95 1022.11C1127.02 1021.84 1127.09 1021.59 1127.15 1021.38C1127.22 1021.15 1127.26 1020.92 1127.26 1020.7C1127.26 1020.52 1127.18 1020.35 1127.01 1020.2C1126.84 1020.06 1126.64 1019.94 1126.4 1019.84C1126.19 1019.76 1125.96 1019.7 1125.71 1019.66C1125.47 1019.61 1125.3 1019.59 1125.18 1019.59V1018.59H1131.04V1019.59ZM1151.1 1034H1143.55V1032.97C1143.79 1032.95 1144.05 1032.93 1144.33 1032.91C1144.62 1032.89 1144.86 1032.84 1145.05 1032.78C1145.34 1032.69 1145.56 1032.53 1145.69 1032.3C1145.84 1032.06 1145.91 1031.75 1145.91 1031.38V1023.45C1145.91 1022.36 1145.65 1021.52 1145.13 1020.92C1144.62 1020.33 1143.99 1020.03 1143.25 1020.03C1142.7 1020.03 1142.2 1020.12 1141.74 1020.3C1141.28 1020.46 1140.87 1020.67 1140.52 1020.92C1140.17 1021.16 1139.9 1021.42 1139.69 1021.7C1139.49 1021.97 1139.35 1022.19 1139.25 1022.36V1031.22C1139.25 1031.57 1139.33 1031.86 1139.47 1032.09C1139.62 1032.32 1139.84 1032.5 1140.13 1032.62C1140.35 1032.73 1140.58 1032.81 1140.83 1032.86C1141.09 1032.91 1141.36 1032.95 1141.63 1032.97V1034H1134.08V1032.97C1134.32 1032.95 1134.57 1032.93 1134.82 1032.91C1135.08 1032.89 1135.3 1032.84 1135.49 1032.78C1135.78 1032.69 1135.99 1032.53 1136.13 1032.3C1136.27 1032.06 1136.35 1031.75 1136.35 1031.38V1021.86C1136.35 1021.51 1136.27 1021.18 1136.11 1020.89C1135.97 1020.59 1135.76 1020.34 1135.49 1020.16C1135.29 1020.03 1135.06 1019.94 1134.78 1019.89C1134.51 1019.83 1134.22 1019.79 1133.91 1019.77V1018.75L1139.03 1018.41L1139.25 1018.62V1020.8H1139.33C1139.58 1020.55 1139.89 1020.25 1140.27 1019.91C1140.64 1019.55 1141 1019.27 1141.33 1019.05C1141.72 1018.8 1142.17 1018.59 1142.71 1018.42C1143.24 1018.26 1143.84 1018.17 1144.5 1018.17C1145.98 1018.17 1147.08 1018.64 1147.78 1019.56C1148.5 1020.48 1148.86 1021.7 1148.86 1023.23V1031.25C1148.86 1031.61 1148.92 1031.91 1149.05 1032.14C1149.17 1032.36 1149.39 1032.53 1149.69 1032.66C1149.94 1032.76 1150.15 1032.83 1150.33 1032.88C1150.52 1032.92 1150.77 1032.95 1151.1 1032.97V1034ZM1176.98 1011.67C1176.98 1012.14 1176.85 1012.54 1176.6 1012.86C1176.35 1013.18 1175.97 1013.34 1175.46 1013.34C1175.14 1013.34 1174.85 1013.28 1174.6 1013.14C1174.36 1013.01 1174.14 1012.82 1173.93 1012.59C1173.72 1012.36 1173.53 1012.1 1173.35 1011.81C1173.17 1011.52 1173.02 1011.29 1172.9 1011.11C1172.2 1011.14 1171.66 1011.63 1171.27 1012.58C1170.9 1013.52 1170.71 1015.02 1170.71 1017.08V1018.66H1174.68V1020.16H1170.71V1031.22C1170.71 1031.58 1170.78 1031.88 1170.91 1032.11C1171.06 1032.34 1171.28 1032.51 1171.58 1032.62C1171.83 1032.72 1172.17 1032.8 1172.58 1032.86C1173 1032.91 1173.36 1032.95 1173.66 1032.97V1034H1165.54V1032.97C1165.78 1032.95 1166.02 1032.93 1166.27 1032.91C1166.53 1032.89 1166.76 1032.84 1166.94 1032.78C1167.24 1032.69 1167.45 1032.53 1167.58 1032.3C1167.73 1032.06 1167.8 1031.75 1167.8 1031.38V1020.16H1164.76V1018.66H1167.8V1017.67C1167.8 1015.33 1168.41 1013.43 1169.62 1011.98C1170.83 1010.53 1172.36 1009.8 1174.18 1009.8C1175.11 1009.8 1175.8 1009.98 1176.27 1010.34C1176.74 1010.71 1176.98 1011.15 1176.98 1011.67ZM1194.83 1033.72L1189.81 1034.06L1189.58 1033.84V1031.89H1189.48C1189.23 1032.15 1188.95 1032.43 1188.64 1032.73C1188.33 1033.03 1187.97 1033.29 1187.56 1033.53C1187.09 1033.81 1186.64 1034.03 1186.2 1034.17C1185.77 1034.32 1185.15 1034.39 1184.34 1034.39C1182.98 1034.39 1181.94 1033.95 1181.22 1033.06C1180.51 1032.17 1180.16 1030.87 1180.16 1029.17V1021.8C1180.16 1021.42 1180.08 1021.11 1179.94 1020.86C1179.8 1020.6 1179.6 1020.38 1179.33 1020.19C1179.14 1020.06 1178.91 1019.97 1178.62 1019.92C1178.34 1019.86 1178.05 1019.82 1177.73 1019.8V1018.78L1182.88 1018.41L1183.11 1018.62V1029.33C1183.11 1030.44 1183.36 1031.28 1183.86 1031.84C1184.36 1032.41 1184.96 1032.69 1185.66 1032.69C1186.23 1032.69 1186.74 1032.6 1187.19 1032.42C1187.64 1032.24 1188.01 1032.04 1188.31 1031.8C1188.59 1031.58 1188.84 1031.35 1189.05 1031.11C1189.27 1030.86 1189.43 1030.63 1189.55 1030.42V1021.69C1189.55 1021.34 1189.47 1021.04 1189.33 1020.78C1189.18 1020.51 1188.98 1020.28 1188.72 1020.09C1188.53 1019.97 1188.25 1019.9 1187.88 1019.88C1187.51 1019.84 1187.1 1019.82 1186.64 1019.8V1018.78L1192.23 1018.41L1192.47 1018.62V1030.86C1192.47 1031.21 1192.54 1031.52 1192.69 1031.77C1192.83 1032.02 1193.04 1032.23 1193.3 1032.41C1193.48 1032.52 1193.71 1032.6 1193.97 1032.64C1194.23 1032.67 1194.52 1032.69 1194.83 1032.7V1033.72ZM1216.13 1034H1208.59V1032.97C1208.83 1032.95 1209.09 1032.93 1209.37 1032.91C1209.66 1032.89 1209.9 1032.84 1210.09 1032.78C1210.38 1032.69 1210.59 1032.53 1210.73 1032.3C1210.87 1032.06 1210.95 1031.75 1210.95 1031.38V1023.45C1210.95 1022.36 1210.69 1021.52 1210.17 1020.92C1209.66 1020.33 1209.03 1020.03 1208.29 1020.03C1207.74 1020.03 1207.23 1020.12 1206.77 1020.3C1206.32 1020.46 1205.91 1020.67 1205.56 1020.92C1205.21 1021.16 1204.94 1021.42 1204.73 1021.7C1204.53 1021.97 1204.38 1022.19 1204.29 1022.36V1031.22C1204.29 1031.57 1204.36 1031.86 1204.51 1032.09C1204.66 1032.32 1204.87 1032.5 1205.17 1032.62C1205.38 1032.73 1205.62 1032.81 1205.87 1032.86C1206.13 1032.91 1206.39 1032.95 1206.67 1032.97V1034H1199.12V1032.97C1199.36 1032.95 1199.6 1032.93 1199.85 1032.91C1200.11 1032.89 1200.34 1032.84 1200.52 1032.78C1200.82 1032.69 1201.03 1032.53 1201.17 1032.3C1201.31 1032.06 1201.38 1031.75 1201.38 1031.38V1021.86C1201.38 1021.51 1201.31 1021.18 1201.15 1020.89C1201 1020.59 1200.8 1020.34 1200.52 1020.16C1200.33 1020.03 1200.09 1019.94 1199.82 1019.89C1199.55 1019.83 1199.26 1019.79 1198.95 1019.77V1018.75L1204.07 1018.41L1204.29 1018.62V1020.8H1204.37C1204.62 1020.55 1204.93 1020.25 1205.31 1019.91C1205.68 1019.55 1206.04 1019.27 1206.37 1019.05C1206.75 1018.8 1207.21 1018.59 1207.74 1018.42C1208.27 1018.26 1208.87 1018.17 1209.54 1018.17C1211.02 1018.17 1212.11 1018.64 1212.82 1019.56C1213.54 1020.48 1213.9 1021.7 1213.9 1023.23V1031.25C1213.9 1031.61 1213.96 1031.91 1214.09 1032.14C1214.21 1032.36 1214.43 1032.53 1214.73 1032.66C1214.98 1032.76 1215.19 1032.83 1215.37 1032.88C1215.56 1032.92 1215.81 1032.95 1216.13 1032.97V1034ZM1225.78 1032.2C1225.78 1032.79 1225.57 1033.29 1225.14 1033.7C1224.73 1034.11 1224.23 1034.31 1223.64 1034.31C1223.06 1034.31 1222.56 1034.11 1222.13 1033.7C1221.71 1033.29 1221.5 1032.79 1221.5 1032.2C1221.5 1031.62 1221.71 1031.12 1222.13 1030.7C1222.56 1030.28 1223.06 1030.06 1223.64 1030.06C1224.23 1030.06 1224.73 1030.28 1225.14 1030.7C1225.57 1031.12 1225.78 1031.62 1225.78 1032.2Z" fill="white"/>
<g filter="url(#filter0_d_8_2)">
<circle cx="475.5" cy="540.5" r="258.5" fill="url(#paint0_radial_8_2)" shape-rendering="crispEdges"/>
</g>
<circle cx="475.5" cy="704.5" r="32.5" fill="#D9D9D9"/>
<path d="M302.24 578V502.736H381.856V515.024H319.136V532.688H367.008V545.36H319.136V565.712H382.368L387.488 576.592C387.488 576.933 386.336 577.275 384.032 577.616C381.728 577.872 377.76 578 372.128 578H302.24ZM468.08 578V520.656H478.576L483.44 523.216C485.659 522.021 488.048 521.083 490.608 520.4C493.168 519.717 496.411 519.376 500.336 519.376C506.565 519.376 511.6 520.059 515.44 521.424C519.365 522.789 521.968 523.813 523.248 524.496L518.768 535.632C517.744 535.12 516.037 534.48 513.648 533.712C511.344 532.859 508.613 532.091 505.456 531.408C502.299 530.725 498.843 530.384 495.088 530.384H493.68C489.584 530.384 486.896 531.195 485.616 532.816C484.421 534.437 483.781 537.125 483.696 540.88V578H468.08ZM602.605 578V520.656H613.101L617.965 523.216C620.184 522.021 622.573 521.083 625.133 520.4C627.693 519.717 630.936 519.376 634.861 519.376C641.09 519.376 646.125 520.059 649.965 521.424C653.89 522.789 656.493 523.813 657.773 524.496L653.293 535.632C652.269 535.12 650.562 534.48 648.173 533.712C645.869 532.859 643.138 532.091 639.981 531.408C636.824 530.725 633.368 530.384 629.613 530.384H628.205C624.109 530.384 621.421 531.195 620.141 532.816C618.946 534.437 618.306 537.125 618.221 540.88V578H602.605Z" fill="white"/>
<path d="M1082.88 646V629.744L1082.56 627.184H1087.17L1098.05 638.576L1099.3 640.304H1099.65V627.184H1103.87V646H1099.81L1088.67 634.416L1087.42 632.912H1087.1V646H1082.88ZM1119.78 646C1118.35 646 1117.29 645.712 1116.58 645.136C1115.9 644.56 1115.56 643.621 1115.56 642.32V635.76C1115.56 635.44 1115.58 635.056 1115.62 634.608C1115.69 634.139 1115.83 633.68 1116.07 633.232C1116.33 632.784 1116.74 632.411 1117.32 632.112C1117.91 631.813 1118.74 631.664 1119.78 631.664H1128.61C1129.68 631.664 1130.5 631.813 1131.08 632.112C1131.65 632.411 1132.06 632.784 1132.29 633.232C1132.55 633.68 1132.7 634.139 1132.74 634.608C1132.81 635.056 1132.84 635.44 1132.84 635.76V641.904C1132.84 642.288 1132.81 642.715 1132.74 643.184C1132.7 643.653 1132.55 644.101 1132.29 644.528C1132.04 644.955 1131.62 645.307 1131.05 645.584C1130.47 645.861 1129.66 646 1128.61 646H1119.78ZM1121 643.248H1127.4C1128.44 643.248 1128.97 642.821 1128.97 641.968V635.696C1128.97 634.843 1128.44 634.416 1127.4 634.416H1121C1119.97 634.416 1119.46 634.843 1119.46 635.696V641.968C1119.46 642.821 1119.97 643.248 1121 643.248ZM1149.43 646C1147.81 646 1146.7 645.659 1146.11 644.976C1145.51 644.293 1145.21 643.269 1145.21 641.904V634.416H1142.59V631.664H1143.93C1144.34 631.664 1144.62 631.6 1144.79 631.472C1144.99 631.344 1145.12 631.088 1145.21 630.704L1145.85 627.28H1149.11V631.664H1155.77V634.416H1149.11V641.936C1149.11 642.469 1149.24 642.821 1149.5 642.992C1149.75 643.163 1150.14 643.248 1150.65 643.248H1155.16L1155.48 645.68C1155.03 645.744 1154.35 645.819 1153.43 645.904C1152.52 645.968 1151.51 646 1150.43 646H1149.43ZM1181.37 646V629.744L1181.05 627.184H1201.01V630.256H1185.59V634.928H1197.56V638.096H1185.59V646H1181.37ZM1213.55 646C1212.12 646 1211.05 645.712 1210.35 645.136C1209.67 644.56 1209.32 643.621 1209.32 642.32V635.76C1209.32 635.44 1209.35 635.056 1209.39 634.608C1209.45 634.139 1209.6 633.68 1209.84 633.232C1210.09 632.784 1210.51 632.411 1211.08 632.112C1211.68 631.813 1212.5 631.664 1213.55 631.664H1222.38C1223.45 631.664 1224.27 631.813 1224.84 632.112C1225.42 632.411 1225.83 632.784 1226.06 633.232C1226.32 633.68 1226.47 634.139 1226.51 634.608C1226.57 635.056 1226.6 635.44 1226.6 635.76V641.904C1226.6 642.288 1226.57 642.715 1226.51 643.184C1226.47 643.653 1226.32 644.101 1226.06 644.528C1225.8 644.955 1225.39 645.307 1224.81 645.584C1224.24 645.861 1223.43 646 1222.38 646H1213.55ZM1214.76 643.248H1221.16C1222.21 643.248 1222.73 642.821 1222.73 641.968V635.696C1222.73 634.843 1222.21 634.416 1221.16 634.416H1214.76C1213.74 634.416 1213.23 634.843 1213.23 635.696V641.968C1213.23 642.821 1213.74 643.248 1214.76 643.248ZM1241.86 646C1240.81 646 1239.99 645.861 1239.39 645.584C1238.82 645.307 1238.4 644.955 1238.15 644.528C1237.91 644.101 1237.76 643.653 1237.7 643.184C1237.66 642.715 1237.63 642.288 1237.63 641.904V631.664H1241.54V641.968C1241.52 642.437 1241.67 642.768 1241.99 642.96C1242.33 643.152 1242.69 643.248 1243.07 643.248H1249.41C1249.88 643.248 1250.16 643.205 1250.24 643.12C1250.33 643.035 1250.37 642.757 1250.37 642.288V631.664H1254.27V646H1251.65L1250.43 645.36C1249.58 645.531 1248.57 645.68 1247.39 645.808C1246.24 645.936 1244.94 646 1243.49 646H1241.86ZM1265.62 646V631.664H1268.25L1269.53 632.304C1270.42 632.133 1271.5 631.984 1272.76 631.856C1274.02 631.728 1275.46 631.664 1277.08 631.664H1278.68C1279.75 631.664 1280.57 631.813 1281.14 632.112C1281.72 632.411 1282.12 632.784 1282.36 633.232C1282.61 633.68 1282.76 634.139 1282.81 634.608C1282.87 635.056 1282.9 635.44 1282.9 635.76V646H1279V635.696C1279 634.843 1278.49 634.416 1277.46 634.416H1270.49C1270.08 634.416 1269.81 634.459 1269.69 634.544C1269.58 634.608 1269.53 634.8 1269.53 635.12V646H1265.62ZM1298.02 646C1296.95 646 1296.13 645.861 1295.55 645.584C1294.98 645.307 1294.56 644.955 1294.3 644.528C1294.07 644.101 1293.92 643.653 1293.86 643.184C1293.81 642.715 1293.79 642.288 1293.79 641.904V635.76C1293.79 635.44 1293.81 635.056 1293.86 634.608C1293.92 634.139 1294.07 633.68 1294.3 633.232C1294.56 632.784 1294.98 632.411 1295.55 632.112C1296.15 631.813 1296.97 631.664 1298.02 631.664H1299.65C1301.61 631.664 1303.19 631.707 1304.38 631.792C1305.6 631.856 1306.53 631.931 1307.17 632.016V625.712H1311.07V646H1308.45L1307.2 645.36C1306.3 645.509 1305.23 645.659 1303.97 645.808C1302.71 645.936 1301.26 646 1299.62 646H1298.02ZM1299.23 643.248H1306.18C1306.62 643.248 1306.9 643.195 1307.01 643.088C1307.11 642.981 1307.17 642.715 1307.17 642.288V634.64C1306.44 634.597 1305.52 634.555 1304.42 634.512C1303.31 634.448 1302.12 634.416 1300.86 634.416H1299.23C1298.21 634.416 1297.7 634.843 1297.7 635.696V641.968C1297.7 642.821 1298.21 643.248 1299.23 643.248Z" fill="white"/>
<defs>
<filter id="filter0_d_8_2" x="186" y="282" width="548" height="524" filterUnits="userSpaceOnUse" color-interpolation-filters="sRGB">
<feFlood flood-opacity="0" result="BackgroundImageFix"/>
<feColorMatrix in="SourceAlpha" type="matrix" values="0 0 0 0 0 0 0 0 0 0 0 0 0 0 0 0 0 0 127 0" result="hardAlpha"/>
<feMorphology radius="31" operator="erode" in="SourceAlpha" result="effect1_dropShadow_8_2"/>
<feOffset dx="-35" dy="11"/>
<feGaussianBlur stdDeviation="13.5"/>
<feComposite in2="hardAlpha" operator="out"/>
<feColorMatrix type="matrix" values="0 0 0 0 0.5375 0 0 0 0 0.5375 0 0 0 0 0.5375 0 0 0 0.25 0"/>
<feBlend mode="normal" in2="BackgroundImageFix" result="effect1_dropShadow_8_2"/>
<feBlend mode="normal" in="SourceGraphic" in2="effect1_dropShadow_8_2" result="shape"/>
</filter>
<radialGradient id="paint0_radial_8_2" cx="0" cy="0" r="1" gradientUnits="userSpaceOnUse" gradientTransform="translate(574 420) rotate(123.84) scale(423.792)">
<stop/>
<stop offset="0.0001" stop-opacity="0.976118"/>
<stop offset="0.64375" stop-color="#070707" stop-opacity="0.975411"/>
<stop offset="0.977083" stop-color="#3E3E3E"/>
<stop offset="0.9995" stop-color="#363636" stop-opacity="0.877568"/>
<stop offset="0.9996" stop-color="#5A5A5A" stop-opacity="0.800799"/>
<stop offset="0.9997" stop-color="#494949" stop-opacity="0.833815"/>
<stop offset="0.9998" stop-color="#F0F0F0" stop-opacity="0.731484"/>
</radialGradient>
</defs>
</svg>
